<svg xmlns="http://www.w3.org/2000/svg" xmlns:xlink="http://www.w3.org/1999/xlink" width="26" height="25" viewBox="0 0 26 25"><defs><path id="dwdqa" d="M1509.19 134.62a2.33 2.33 0 0 1-2.29 2.38 2.33 2.33 0 0 1-2.28-2.38c0-1.3 1.02-2.37 2.28-2.37a2.34 2.34 0 0 1 2.29 2.37zm-1.28 0c0-.58-.45-1.05-1-1.05-.56 0-1.02.47-1.02 1.05 0 .58.46 1.05 1.01 1.05.56 0 1.01-.47 1.01-1.05zm9.3 0a2.33 2.33 0 0 1-2.29 2.38 2.33 2.33 0 0 1-2.28-2.38c0-1.3 1.02-2.37 2.28-2.37a2.34 2.34 0 0 1 2.29 2.37zm-1.28 0c0-.58-.45-1.05-1-1.05-.56 0-1.02.47-1.02 1.05 0 .58.46 1.05 1.01 1.05.56 0 1.01-.47 1.01-1.05zm.2-14.22c0 .37-.3.66-.64.66h-9.15a.65.65 0 0 1-.64-.66c0-.37.29-.66.64-.66h9.15c.35 0 .63.3.63.66zm-.5 3.44c0 .37-.29.67-.64.67h-8.15a.65.65 0 0 1-.64-.67c0-.36.28-.66.64-.66h8.15c.35 0 .64.3.64.66zm6.34-5.95l-1.78 9a1.3 1.3 0 0 1-1.25 1.06h-15.79l.38 1.9h15.29c.35 0 .64.3.64.66 0 .37-.29.66-.64.66h-15.3a1.3 1.3 0 0 1-1.24-1.06l-3.1-15.57-2.8-1.27a.67.67 0 0 1-.33-.87c.14-.34.52-.5.84-.35l2.8 1.27c.39.17.66.53.75.95l.4 2.02h19.88c.39 0 .75.18 1 .5.24.3.33.7.25 1.1zm-1.25-.27h-19.62l1.79 9h16.05z"/></defs><g><g transform="translate(-1496 -112)"><use fill="#fff" xlink:href="#dwdqa"/></g></g></svg>