<svg xmlns="http://www.w3.org/2000/svg" xmlns:xlink="http://www.w3.org/1999/xlink" width="22" height="16" viewBox="0 0 22 16"><defs><path id="up7ha" d="M609 7887.28v11.43c0 1.27-.99 2.29-2.2 2.29h-17.6a2.24 2.24 0 0 1-2.2-2.29v-11.43c0-1.26.98-2.28 2.2-2.28h17.6c1.21 0 2.2 1.02 2.2 2.28zm-17.88 3.4c0 1.56 1.54 2.32 2.07 2.32.55 0 2.06-.76 2.06-2.33v-1.16c0-1.57-1.1-2.33-2.06-2.33-.94 0-2.07.76-2.07 2.33zm6.2 5.96c0-.8-.29-2.05-1.57-2.8-.6-.35-1.15.22-1.88.9l-.2.2s-.2.24-.48.24c-.26 0-.48-.22-.49-.23l-.2-.21c-.73-.68-1.37-1.26-1.87-.9-1.22.87-1.57 2-1.57 2.8v.72c0 1.06.34 1.46 1.38 1.46h5.5c1.04 0 1.37-.4 1.37-1.46v-.72zm9.62 0a.7.7 0 0 0-.69-.73h-6.19a.7.7 0 0 0-.68.73c0 .4.3.72.68.72h6.19a.7.7 0 0 0 .69-.72zm0-3.64c0-.4-.31-.73-.69-.73h-6.19c-.38 0-.68.33-.68.73 0 .4.3.73.68.73h6.19a.7.7 0 0 0 .69-.73zm0-3.64a.7.7 0 0 0-.69-.72h-6.19a.7.7 0 0 0-.68.72c0 .4.3.73.68.73h6.19a.7.7 0 0 0 .69-.73z"/></defs><g><g transform="translate(-587 -7885)"><use fill="#8292a1" xlink:href="#up7ha"/></g></g></svg>