<svg xmlns="http://www.w3.org/2000/svg" xmlns:xlink="http://www.w3.org/1999/xlink" width="17" height="22" viewBox="0 0 17 22"><defs><path id="p9gca" d="M69 769.86V791H52v-21.14h4.1l1.15-3V761h6.5v5.88l1.15 2.98zm-10-5.83h3v-1.27h-3zm-1.02 5.83h5.04L62 767.2v-1.42h-2.98v1.4zm9.27 19.38V775.6h-13.5v13.64zm0-15.4v-2.23h-13.5v2.23zm-.91 9.43h-1.62l1.2 1.14-1.2 1.27-2.55-2.4h-.8v.76l2.48 2.47-1.24 1.24-1.23-1.23v1.71h-1.76v-1.7l-1.22 1.23-1.24-1.24 2.46-2.48v-.77h-.77l-2.47 2.47-1.24-1.24 1.23-1.23h-1.7v-1.75h1.7l-1.25-1.27 1.24-1.24 2.5 2.5h.76v-.78l-2.49-2.5 1.24-1.23 1.25 1.25v-1.7h1.76v1.7l1.25-1.25 1.24 1.24-2.5 2.5v.78h.77l2.42-2.56 1.27 1.2-1.27 1.36h1.78z"/></defs><g><g transform="translate(-52 -769)"><use fill="#8292a1" xlink:href="#p9gca"/></g></g></svg>