<svg xmlns="http://www.w3.org/2000/svg" xmlns:xlink="http://www.w3.org/1999/xlink" width="20" height="19" viewBox="0 0 20 19"><defs><path id="u6m3a" d="M70 717.82v16.84a.8.8 0 0 1-.8.82h-16a.8.8 0 0 1-.8-.82v-16.84a.8.8 0 0 1 .8-.82h16c.44 0 .8.37.8.82zm-1.6 5.7v-4.89H58.27v4.9h4a.8.8 0 0 1 0 1.63h-4v2.44a.8.8 0 0 1-.8.81.8.8 0 0 1-.8-.81v-8.97H54v15.22h2.67v-2.45a.8.8 0 0 1 .8-.81c.44 0 .8.36.8.81v2.45H68.4v-8.7H66a.8.8 0 0 1-.8-.81.8.8 0 0 1 .8-.82zm1.37 16.61l-1.6 1.63a.79.79 0 0 1-1.14 0 .83.83 0 0 1 0-1.15l.24-.24H51.93l.23.24c.32.32.32.83 0 1.15a.79.79 0 0 1-1.13 0l-1.6-1.63a.83.83 0 0 1 0-1.15l1.6-1.63a.79.79 0 0 1 1.13 0c.32.32.32.83 0 1.15l-.23.24h15.34l-.24-.24a.83.83 0 0 1 0-1.15.79.79 0 0 1 1.14 0l1.6 1.63c.3.31.3.83 0 1.15zm-19.2-6.04c.3.31.3.83 0 1.15l-1.6 1.63a.79.79 0 0 1-1.14 0l-1.6-1.63a.83.83 0 0 1 0-1.15.79.79 0 0 1 1.13 0l.24.24v-14.55l-.24.24a.79.79 0 0 1-1.13 0 .83.83 0 0 1 0-1.15l1.6-1.63a.79.79 0 0 1 1.13 0l1.6 1.63c.32.32.32.83 0 1.15a.79.79 0 0 1-1.13 0l-.23-.24v14.55l.23-.24a.79.79 0 0 1 1.13 0z"/></defs><g><g transform="translate(-50 -717)"><use fill="#8292a1" xlink:href="#u6m3a"/></g></g></svg>