<svg width="20" height="20" viewBox="0 0 20 20" fill="none" xmlns="http://www.w3.org/2000/svg">
<path d="M19.9477 7.67111C19.816 7.26614 19.4568 6.97942 19.0335 6.94112L13.2601 6.41697L10.9784 1.07508C10.81 0.682621 10.4267 0.429321 10 0.429321C9.57338 0.429321 9.18992 0.682621 9.02253 1.07508L6.74085 6.41697L0.96652 6.94112C0.543234 6.98018 0.184799 7.2669 0.0523506 7.67111C-0.0793349 8.07609 0.0422796 8.52028 0.362414 8.80104L4.72665 12.6279L3.43986 18.2954C3.34571 18.7121 3.50746 19.143 3.85323 19.393C4.03908 19.528 4.25744 19.5954 4.47656 19.5954C4.66485 19.5954 4.8533 19.5454 5.02161 19.4447L10 16.4679L14.9775 19.4447C15.3427 19.6629 15.8018 19.6429 16.1468 19.393C16.4926 19.143 16.6543 18.7121 16.5602 18.2954L15.2734 12.6279L19.6376 8.80104C19.9576 8.52028 20.0794 8.077 19.9477 7.67111Z" fill="#37536D"/>
</svg>
