<svg xmlns="http://www.w3.org/2000/svg" xmlns:xlink="http://www.w3.org/1999/xlink" width="57" height="57" viewBox="0 0 57 57"><defs><path id="ptala" d="M55.53 44.93L46.8 36.2a4.56 4.56 0 0 0-6.42.12l-4.4 4.4-.88-.48a43.82 43.82 0 0 1-10.6-7.66c-4-4.02-6.12-7.83-7.67-10.61l-.47-.85 2.95-2.95 1.46-1.46a4.55 4.55 0 0 0 .11-6.43l-8.74-8.74a4.55 4.55 0 0 0-6.43.12L3.24 4.13l.07.06a14.23 14.23 0 0 0-2.94 7.22c-1.15 9.57 3.22 18.31 15.1 30.18C31.86 58 45.08 56.76 45.65 56.7a14.78 14.78 0 0 0 7.2-2.93l.06.05 2.5-2.45a4.56 4.56 0 0 0 .11-6.43z"/></defs><g><g><use xlink:href="#ptala"/></g></g></svg>