<?xml version="1.0" encoding="iso-8859-1"?>
<!-- Generator: Adobe Illustrator 22.1.0, SVG Export Plug-In . SVG Version: 6.00 Build 0)  -->
<svg xmlns="http://www.w3.org/2000/svg" xmlns:xlink="http://www.w3.org/1999/xlink" version="1.1" id="Layer_1_1_" x="0px" y="0px" viewBox="0 0 64 64" style="enable-background:new 0 0 64 64;" xml:space="preserve" width="512" height="512">
<g>
	<path d="M10.084,40.344c1.076,1.65,2.395,3.128,3.916,4.371v-2.694c-0.829-0.826-1.559-1.723-2.19-2.673L10.084,40.344z"/>
	<ellipse cx="29" cy="26" rx="2" ry="3"/>
	<path d="M9,30c0-2.737,0.666-5.317,1.82-7.609l-1.735-1.002C7.762,23.978,7,26.899,7,30s0.762,6.022,2.085,8.611l1.728-0.998   C9.636,35.281,9,32.696,9,30z"/>
	<path d="M26,39c-1.654,0-3,1.346-3,3c0,1.302,0.839,2.402,2,2.816V41h2v3.816c1.161-0.414,2-1.514,2-2.816   C29,40.346,27.654,39,26,39z"/>
	<path d="M40.186,20.655l1.73-0.999c-3.221-4.939-8.672-8.278-14.916-8.605v2C32.506,13.373,37.315,16.311,40.186,20.655z"/>
	<path d="M25,13.051v-2c-6.244,0.327-11.695,3.666-14.916,8.605l1.73,0.999C14.685,16.311,19.494,13.373,25,13.051z"/>
	<path d="M55.544,42.101L55,41.822V39h-2v-2h2v-2h-4v-2h4v-2h-2v-2h2v-2h-4v-2h4v-2h-2v-2h2v-2h-4v-2h4v-2h-2v-2h2v-2h-4V9h4V7h-2V5   h2V4c0-0.551-0.448-1-1-1h-6c-0.552,0-1,0.449-1,1v12.461c2.526,3.905,4,8.552,4,13.539c0,8.126-3.899,15.356-9.921,19.925   C41.04,50.281,41,50.639,41,51c0,5.514,4.486,10,10,10s10-4.486,10-10C61,47.233,58.909,43.823,55.544,42.101z M51,59   c-4.411,0-8-3.589-8-8h2c0,3.309,2.691,6,6,6s6-2.691,6-6s-2.691-6-6-6v-2c4.411,0,8,3.589,8,8S55.411,59,51,59z"/>
	<path d="M42.915,21.389l-1.735,1.002C42.334,24.683,43,27.263,43,30c0,2.696-0.636,5.281-1.813,7.613l1.728,0.998   C44.238,36.022,45,33.101,45,30S44.238,23.978,42.915,21.389z"/>
	<path d="M49,30C49,17.318,38.683,7,26,7S3,17.318,3,30s10.317,23,23,23S49,42.682,49,30z M26,51C14.421,51,5,41.58,5,30   S14.421,9,26,9s21,9.42,21,21S37.579,51,26,51z"/>
	<path d="M38,42.021v2.694c1.521-1.243,2.839-2.72,3.916-4.371l-1.726-0.996C39.559,40.298,38.829,41.195,38,42.021z"/>
	<path d="M26,15c-8.271,0-15,6.729-15,15c0,4.144,1.665,8.005,4.688,10.873L16,41.169v4.956C18.909,47.936,22.329,49,26,49   s7.091-1.064,10-2.875v-4.956l0.312-0.296C39.335,38.005,41,34.144,41,30C41,21.729,34.271,15,26,15z M18,28.586l3.707-3.707   C21.896,24.69,22,24.438,22,24.171V24c0-0.551-0.448-1-1-1s-1,0.449-1,1v1h-2v-1c0-1.654,1.346-3,3-3s3,1.346,3,3v0.171   c0,0.801-0.312,1.555-0.879,2.122L20.414,29H24v2h-6V28.586z M26,47c-2.757,0-5-2.243-5-5s2.243-5,5-5s5,2.243,5,5S28.757,47,26,47   z M29,31c-2.206,0-4-2.243-4-5s1.794-5,4-5s4,2.243,4,5S31.206,31,29,31z"/>
</g>
</svg>
