<svg width="50" height="50" viewBox="0 0 50 50" fill="none" xmlns="http://www.w3.org/2000/svg">
<g clip-path="url(#clip0)">
<path d="M48.1653 5.5647H38.0478C37.6433 5.5647 37.3153 5.89263 37.3153 6.29712C37.3153 6.70161 37.6433 7.02954 38.0478 7.02954H48.1653C48.3692 7.02954 48.5352 7.19546 48.5352 7.39936V9.59233H46.6683C46.2638 9.59233 45.9358 9.92026 45.9358 10.3248C45.9358 10.7292 46.2638 11.0572 46.6683 11.0572H48.5352V12.4569H46.6683C46.2638 12.4569 45.9358 12.7848 45.9358 13.1893C45.9358 13.5938 46.2638 13.9217 46.6683 13.9217H48.5352V15.3214H46.6683C46.2638 15.3214 45.9358 15.6494 45.9358 16.0539C45.9358 16.4584 46.2638 16.7863 46.6683 16.7863H48.5352V18.186H46.6683C46.2638 18.186 45.9358 18.5139 45.9358 18.9184C45.9358 19.3229 46.2638 19.6508 46.6683 19.6508H48.5352V21.8438C48.5352 22.0477 48.3692 22.2136 48.1653 22.2136H10.2673C9.86279 22.2136 9.53486 22.5416 9.53486 22.946C9.53486 23.3505 9.86279 23.6785 10.2673 23.6785H24.2665V29.8235H22.8624C22.4579 29.8235 22.13 30.1514 22.13 30.5559V38.4527H17.5853C16.631 38.4527 15.8546 39.2291 15.8546 40.1834V40.5892H8.35605V39.6266C8.35605 38.8444 7.71973 38.2081 6.9375 38.2081H3.54746C2.76523 38.2081 2.12891 38.8444 2.12891 39.6266V43.0167C2.12891 43.7989 2.76523 44.4352 3.54746 44.4352H6.9375C7.71973 44.4352 8.35605 43.7989 8.35605 43.0167V42.0541H15.8545V42.4599C15.8545 43.4142 16.6309 44.1906 17.5852 44.1906H32.4125C33.3668 44.1906 34.1432 43.4142 34.1432 42.4599V42.0541H41.6586V43.0167C41.6586 43.7989 42.295 44.4352 43.0771 44.4352H46.4672C47.2494 44.4352 47.8857 43.7989 47.8857 43.0167V39.6266C47.8857 38.8444 47.2494 38.2081 46.4672 38.2081H43.0771C42.2949 38.2081 41.6586 38.8444 41.6586 39.6266V40.5892H34.1432V40.1834C34.1432 39.2291 33.3668 38.4527 32.4125 38.4527H27.8678V30.5559C27.8678 30.1514 27.5398 29.8235 27.1354 29.8235H25.7312V23.6785H48.1652C49.1769 23.6785 49.9999 22.8554 49.9999 21.8438V7.39936C50 6.38774 49.177 5.5647 48.1653 5.5647ZM6.89121 42.9704H3.59375V39.6729H6.89121V42.9704ZM43.1235 39.6729H46.421V42.9704H43.1235V39.6729ZM27.8086 39.9175H32.4126C32.5592 39.9175 32.6784 40.0368 32.6784 40.1834V42.4598C32.6784 42.6064 32.5592 42.7256 32.4126 42.7256H17.5852C17.4386 42.7256 17.3193 42.6064 17.3193 42.4598V40.1834C17.3193 40.0368 17.4386 39.9175 17.5852 39.9175H22.1892C22.9642 39.9175 23.5947 39.287 23.5947 38.5119V31.2883H26.4029V38.5119C26.403 39.287 27.0336 39.9175 27.8086 39.9175Z" fill="white"/>
<path d="M8.07002 22.946C8.07002 22.5416 7.74209 22.2136 7.3376 22.2136H1.83467C1.63076 22.2136 1.46484 22.0477 1.46484 21.8438V7.39936C1.46484 7.19546 1.63076 7.02954 1.83467 7.02954H35.1181C35.5226 7.02954 35.8505 6.70161 35.8505 6.29712C35.8505 5.89263 35.5226 5.5647 35.1181 5.5647H1.83467C0.823047 5.5647 0 6.38774 0 7.39936V21.8439C0 22.8555 0.823047 23.6786 1.83467 23.6786H7.3377C7.74209 23.6785 8.07002 23.3505 8.07002 22.946Z" fill="white"/>
<path d="M9.20413 10.1716H5.6468C5.24231 10.1716 4.91438 10.4996 4.91438 10.9041V12.529H4.13977C3.73528 12.529 3.40735 12.8569 3.40735 13.2614V18.3392C3.40735 18.7437 3.73528 19.0716 4.13977 19.0716H10.7112C11.1157 19.0716 11.4436 18.7437 11.4436 18.3392V13.2614C11.4436 12.8569 11.1157 12.529 10.7112 12.529H9.93655V10.9041C9.93655 10.4996 9.60862 10.1716 9.20413 10.1716ZM9.97874 13.9938V17.6068H4.87219V13.9938H5.6468C6.05129 13.9938 6.37922 13.6659 6.37922 13.2614V11.6365H8.4717V13.2614C8.4717 13.6659 8.79963 13.9938 9.20413 13.9938H9.97874Z" fill="white"/>
<path d="M19.3239 10.1716H15.7666C15.3621 10.1716 15.0341 10.4996 15.0341 10.9041V12.529H14.2595C13.855 12.529 13.5271 12.8569 13.5271 13.2614V18.3392C13.5271 18.7437 13.855 19.0716 14.2595 19.0716H20.8309C21.2354 19.0716 21.5633 18.7437 21.5633 18.3392V13.2614C21.5633 12.8569 21.2354 12.529 20.8309 12.529H20.0563V10.9041C20.0563 10.4996 19.7284 10.1716 19.3239 10.1716ZM20.0985 13.9938V17.6068H14.9919V13.9938H15.7666C16.171 13.9938 16.499 13.6659 16.499 13.2614V11.6365H18.5915V13.2614C18.5915 13.6659 18.9194 13.9938 19.3239 13.9938H20.0985Z" fill="white"/>
<path d="M29.4435 10.1716H25.8862C25.4817 10.1716 25.1538 10.4996 25.1538 10.9041V12.529H24.3792C23.9747 12.529 23.6467 12.8569 23.6467 13.2614V18.3392C23.6467 18.7437 23.9747 19.0716 24.3792 19.0716H30.9505C31.355 19.0716 31.683 18.7437 31.683 18.3392V13.2614C31.683 12.8569 31.355 12.529 30.9505 12.529H30.1758V10.9041C30.1759 10.4996 29.8481 10.1716 29.4435 10.1716ZM30.2182 13.9938V17.6068H25.1116V13.9938H25.8862C26.2907 13.9938 26.6186 13.6659 26.6186 13.2614V11.6365H28.7111V13.2614C28.7111 13.6659 29.039 13.9938 29.4435 13.9938H30.2182Z" fill="white"/>
<path d="M39.5634 10.1716H36.0061C35.6016 10.1716 35.2736 10.4996 35.2736 10.9041V12.529H34.499C34.0945 12.529 33.7666 12.8569 33.7666 13.2614V18.3392C33.7666 18.7437 34.0945 19.0716 34.499 19.0716H41.0704C41.4749 19.0716 41.8028 18.7437 41.8028 18.3392V13.2614C41.8028 12.8569 41.4749 12.529 41.0704 12.529H40.2958V10.9041C40.2958 10.4996 39.9679 10.1716 39.5634 10.1716ZM40.338 13.9938V17.6068H35.2314V13.9938H36.0061C36.4105 13.9938 36.7385 13.6659 36.7385 13.2614V11.6365H38.831V13.2614C38.831 13.6659 39.1589 13.9938 39.5634 13.9938H40.338Z" fill="white"/>
</g>
<defs>
<clipPath id="clip0">
<rect width="50" height="50" fill="white"/>
</clipPath>
</defs>
</svg>
