<svg width="50" height="50" viewBox="0 0 50 50" fill="none" xmlns="http://www.w3.org/2000/svg">
<g clip-path="url(#clip0)">
<path d="M15.5417 18.9792C15.2083 18.9792 14.8813 18.8209 14.6792 18.5251C13.2542 16.4313 12.5 13.9896 12.5 11.4584C12.5 8.92713 13.2542 6.48547 14.6813 4.39172C15.0042 3.91672 15.6521 3.79588 16.1292 4.1188C16.6042 4.4438 16.7271 5.09172 16.4021 5.56672C15.2125 7.31047 14.5833 9.34797 14.5833 11.4584C14.5833 13.5688 15.2125 15.6063 16.4021 17.3501C16.7271 17.8251 16.6042 18.473 16.1292 18.798C15.9479 18.9209 15.7458 18.9792 15.5417 18.9792Z" fill="white"/>
<path d="M34.4583 18.9792C34.2563 18.9792 34.0521 18.9209 33.8729 18.798C33.3979 18.473 33.275 17.8251 33.6 17.3501C34.7875 15.6063 35.4167 13.5688 35.4167 11.4584C35.4167 9.34797 34.7875 7.31047 33.5979 5.56672C33.2729 5.09172 33.3958 4.4438 33.8708 4.1188C34.3479 3.79588 34.9958 3.91672 35.3188 4.39172C36.7458 6.48547 37.5 8.92713 37.5 11.4584C37.5 13.9896 36.7458 16.4313 35.3188 18.5251C35.1167 18.8209 34.7896 18.9792 34.4583 18.9792Z" fill="white"/>
<path d="M10.3979 22.5C10.0667 22.5 9.73958 22.3417 9.5375 22.0479C7.3875 18.9146 6.25 15.2542 6.25 11.4583C6.25 7.6625 7.3875 4.00209 9.5375 0.868753C9.8625 0.393753 10.5104 0.277086 10.9854 0.600003C11.4604 0.925003 11.5792 1.57292 11.2542 2.04792C9.34375 4.83125 8.33333 8.08542 8.33333 11.4583C8.33333 14.8313 9.34375 18.0854 11.2542 20.8688C11.5792 21.3438 11.4604 21.9917 10.9854 22.3167C10.8062 22.4396 10.6 22.5 10.3979 22.5Z" fill="white"/>
<path d="M39.6021 22.5C39.398 22.5 39.1938 22.4417 39.0125 22.3167C38.5375 21.9917 38.4188 21.3438 38.7438 20.8688C40.6563 18.0854 41.6667 14.8313 41.6667 11.4583C41.6667 8.08542 40.6563 4.83125 38.7459 2.04792C38.4209 1.57292 38.5396 0.925003 39.0146 0.600003C39.4896 0.277086 40.1396 0.393753 40.4626 0.868753C42.6126 4.00209 43.7501 7.6625 43.7501 11.4583C43.7501 15.2542 42.6126 18.9146 40.4626 22.0479C40.2605 22.3417 39.9334 22.5 39.6021 22.5Z" fill="white"/>
<path d="M25 16.6667C22.1291 16.6667 19.7916 14.3292 19.7916 11.4583C19.7916 8.5875 22.1291 6.25 25 6.25C27.8708 6.25 30.2083 8.5875 30.2083 11.4583C30.2083 14.3292 27.8708 16.6667 25 16.6667ZM25 8.33333C23.277 8.33333 21.875 9.73542 21.875 11.4583C21.875 13.1813 23.277 14.5833 25 14.5833C26.7229 14.5833 28.1249 13.1813 28.1249 11.4583C28.1249 9.73542 26.7229 8.33333 25 8.33333Z" fill="white"/>
<path d="M34.6104 50.0001H15.3896C14.3729 50.0001 13.4479 49.5272 12.8542 48.7022C12.2604 47.8772 12.1042 46.8501 12.425 45.8855L22.6979 15.0667C22.8792 14.5209 23.4667 14.223 24.0146 14.4084C24.5604 14.5897 24.8542 15.1792 24.6729 15.7251L14.4021 46.5459C14.2958 46.8667 14.3479 47.2084 14.5458 47.4855C14.7438 47.7584 15.0521 47.9167 15.3896 47.9167H34.6104C34.95 47.9167 35.2583 47.7584 35.4542 47.4834C35.6521 47.2084 35.7042 46.8667 35.5979 46.5438L25.325 15.7251C25.1438 15.1792 25.4375 14.5897 25.9833 14.4084C26.5313 14.223 27.1188 14.5209 27.3 15.0667L37.5729 45.8855C37.8958 46.8501 37.7396 47.8772 37.1438 48.7022C36.5479 49.5272 35.6271 50.0001 34.6104 50.0001Z" fill="white"/>
<path d="M13.5417 48.8521C13.1479 48.8521 12.7688 48.6271 12.5938 48.2458C12.3542 47.7229 12.5834 47.1042 13.1063 46.8646L31.325 38.4875L17.7125 33.1458C17.3396 33 17.0834 32.6521 17.0542 32.2521C17.025 31.8542 17.2271 31.4708 17.575 31.2729L29.1688 24.6167C29.6688 24.3292 30.3042 24.5021 30.5917 25.0021C30.8792 25.5021 30.7063 26.1375 30.2063 26.425L20.4938 32L34.3646 37.4417C34.7542 37.5938 35.0146 37.9625 35.025 38.3813C35.0355 38.7979 34.798 39.1833 34.4188 39.3563L13.975 48.7542C13.8354 48.8208 13.6875 48.8521 13.5417 48.8521Z" fill="white"/>
</g>
<defs>
<clipPath id="clip0">
<rect width="50" height="50" fill="white"/>
</clipPath>
</defs>
</svg>
