<svg width="50" height="50" viewBox="0 0 50 50" fill="none" xmlns="http://www.w3.org/2000/svg">
<g clip-path="url(#clip0)">
<path d="M34.3498 27.3253C28.7428 23.4975 21.3012 23.4673 15.6501 27.3253C13.961 28.4783 13.7413 30.8938 15.1926 32.345C16.3018 33.4543 18.0597 33.6158 19.3731 32.7259C22.7583 30.4321 27.229 30.4237 30.6266 32.7259C32.9462 34.2977 36.0126 32.4666 35.7553 29.7146C35.6647 28.7441 35.1523 27.8732 34.3498 27.3253ZM33.7024 31.2402C33.1213 31.8214 32.1963 31.9021 31.5032 31.4325C27.5901 28.7809 22.4252 28.7705 18.4968 31.4325C17.8036 31.9023 16.8787 31.8215 16.2976 31.2402C15.5381 30.4807 15.651 29.2165 16.5312 28.6158C21.6193 25.142 28.3615 25.1289 33.4689 28.6158C34.3506 29.2178 34.4603 30.4823 33.7024 31.2402Z" fill="white"/>
<path d="M41.6914 20.3413C31.9669 12.4924 18.049 12.4796 8.30853 20.3413C6.79595 21.5622 6.67993 23.8326 8.05551 25.2081C9.2428 26.3953 11.1258 26.4944 12.4358 25.4383C19.73 19.5583 30.2208 19.5188 37.5641 25.4383C39.767 27.2143 43.0524 25.5476 42.9014 22.7115C42.8523 21.7862 42.4112 20.9223 41.6914 20.3413ZM40.8396 24.1031C40.2182 24.7246 39.2316 24.7757 38.5447 24.2218C30.6802 17.8822 19.3724 17.8398 11.4553 24.2218C10.7683 24.7757 9.78176 24.7245 9.16038 24.1031C8.45629 23.399 8.4809 22.21 9.28997 21.5572C18.4098 14.1964 31.5285 14.1465 40.7101 21.5572C41.5195 22.2104 41.5433 23.3995 40.8396 24.1031Z" fill="white"/>
<path d="M49.9975 15.6713C49.9636 14.7622 49.5487 13.9006 48.8595 13.3073C35.1462 1.50226 14.8283 1.52433 1.1405 13.3072C0.451248 13.9006 0.0364076 14.7622 0.00242351 15.6713C-0.104509 18.5348 3.26451 20.1338 5.42553 18.2745C16.6764 8.59302 33.3444 8.61119 44.5743 18.2745C46.7387 20.1365 50.1044 18.5316 49.9975 15.6713ZM47.9341 17.0087C47.3025 17.6404 46.2744 17.676 45.5936 17.09C33.7576 6.90544 16.223 6.92204 4.40649 17.09C3.72554 17.6762 2.69742 17.6403 2.06588 17.0087C1.36267 16.3056 1.39733 15.148 2.15993 14.4914C15.2868 3.19131 34.7377 3.2123 47.8401 14.4915C48.5937 15.1401 48.6456 16.2973 47.9341 17.0087Z" fill="white"/>
<path d="M25 45.5382C21.9846 45.5382 19.5312 43.085 19.5312 40.0695C19.5312 37.0539 21.9846 34.6007 25 34.6007C28.0154 34.6007 30.4688 37.0539 30.4688 40.0695C30.4688 43.085 28.0154 45.5382 25 45.5382ZM25 36.1632C22.8461 36.1632 21.0938 37.9156 21.0938 40.0695C21.0938 42.2234 22.8461 43.9757 25 43.9757C27.1539 43.9757 28.9063 42.2234 28.9063 40.0695C28.9063 37.9156 27.1539 36.1632 25 36.1632Z" fill="white"/>
</g>
<defs>
<clipPath id="clip0">
<rect width="50" height="50" fill="white"/>
</clipPath>
</defs>
</svg>
